PathFileType	4	(X/Y/Z)	Patient4_TMGait_0pt6_02_left_22.trc.trc
DataRate	CameraRate	NumFrames	NumMarkers	Units	OrigDataRate	OrigDataStartFrame	OrigNumFrames
83.333333333333	83.333333333333	6	33	mm	83.333333333333	53	       141
Frame#	Time	Sacral			L.Shoulder			Chest			R.Shoulder			Neck			R.ASIS			L.ASIS			R.Thigh.Superior			R.Thigh.Lateral			R.Thigh.Inferior			R.Patella			L.Thigh.Superior			L.Thigh.Lateral			L.Thigh.Inferior			L.Patella			L.Shank.Superior			L.Shank.Lateral			L.Shank.Inferior			R.Shank.Superior			R.Shank.Lateral			R.Shank.Inferior			R.Heel			R.Midfoot.Superior			R.Midfoot.Lateral			R.Toe			L.Heel			L.Midfoot.Lateral			L.Midfoot.Superior			L.Toe			L.Elbow			L.Wrist			R.Elbow			R.Wrist			
		X1	Y1	Z1	X2	Y2	Z2	X3	Y3	Z3	X4	Y4	Z4	X5	Y5	Z5	X6	Y6	Z6	X7	Y7	Z7	X8	Y8	Z8	X9	Y9	Z9	X10	Y10	Z10	X11	Y11	Z11	X12	Y12	Z12	X13	Y13	Z13	X14	Y14	Z14	X15	Y15	Z15	X16	Y16	Z16	X17	Y17	Z17	X18	Y18	Z18	X19	Y19	Z19	X20	Y20	Z20	X21	Y21	Z21	X22	Y22	Z22	X23	Y23	Z23	X24	Y24	Z24	X25	Y25	Z25	X26	Y26	Z26	X27	Y27	Z27	X28	Y28	Z28	X29	Y29	Z29	X30	Y30	Z30	X31	Y31	Z31	X32	Y32	Z32	X33	Y33	Z33	

53	27.574000000000	831.808855296244	1018.224336519098	422.517839199597	1014.889518904262	1439.571663925855	236.594945387504	1120.777523555551	1367.447990865904	393.775628888192	1043.259691702369	1441.844280612187	569.812000875561	1013.354408731140	1500.868361637338	388.498409544022	1059.150547418168	949.842403424872	535.993879204210	1041.473399853224	962.091201611654	262.888570501027	1137.643490429749	776.806432492540	501.363742206588	1101.218376037862	659.144661530294	575.995353517201	1183.984238696890	617.260904105117	489.814575796457	1202.076934744063	501.875525585951	511.766187059064	1091.834515423436	753.221602262780	296.707538914458	999.105287368856	638.342983057757	241.345809038614	1081.771096695151	560.921750539907	306.874521038719	1081.362638340086	491.183250930042	318.784146368636	1053.753520737634	418.986182196234	311.488348565863	962.246895071934	304.681481428044	265.871048348783	1014.127449059098	194.444929153495	337.480816348766	1119.177648458297	432.485373283819	526.021758283824	996.249362260700	406.686774641027	591.285222087161	970.656528240766	297.826918350817	548.133691769475	768.609613657081	266.026460967582	527.095478199079	921.150634120155	171.992842378098	564.195849115700	814.618064074727	195.386105207615	599.975074711936	959.748903595148	47.053898190379	592.041799874110	884.339499130174	39.565813519627	385.356442218263	955.423311422503	35.967135143635	302.408754378086	1040.184713026707	96.665249440120	326.174821438802	1167.572521086758	40.590178181562	293.032566514805	1022.897138530524	1086.127393507991	112.058588657894	1199.236699246204	893.488294035007	129.070153526956	990.452046906746	1092.662463001444	680.904791976585	1062.642588331092	840.043356216984	684.938062540666	
54	27.586000000000	830.389255291594	1019.138829853183	421.132445525689	1016.560404260827	1440.199490744656	236.242146274586	1120.785450709162	1367.458902348653	394.214352916421	1042.237057884588	1442.027070571040	569.715814185173	1014.257447318053	1501.363473111394	388.154989479965	1057.052046139239	950.896715194375	535.932550607907	1040.550038294931	962.303410629926	262.800119201408	1138.896545559006	781.928819990701	500.265918230949	1106.207122299785	663.563315569977	575.282324909375	1189.687887811182	623.827732800395	488.796349166679	1211.033514581417	508.900292103592	510.731866224638	1088.858887980492	752.513546179616	297.014176309237	995.200219240970	638.615517053684	240.991116603738	1076.459813301143	560.374588544432	307.086013133449	1075.191474160662	490.712150725368	318.969171364012	1047.572207216670	418.830717685452	311.448836904623	955.832908776278	304.782586185933	265.637929270996	1007.231562694555	194.421528051042	337.397956649083	1130.075933784343	437.327302822286	525.160135141400	1007.829985728801	407.725344433673	590.002494283525	985.809959174173	297.978661295173	547.042203210454	784.575767723230	258.874543751263	525.413830043380	940.474968226528	171.128324196922	563.044688112478	833.253177750846	190.619465843874	598.862360513475	983.967656907428	48.365638199300	592.004256947709	877.028030118963	39.615554529999	385.269937661828	948.163451212405	35.971469084573	302.325614915022	1032.940992800474	96.670822796075	326.065020363505	1160.313254794132	40.550070004774	292.971513293126	1028.926130990500	1087.789621481526	110.075181979906	1213.551092588343	903.378712322403	128.259230234626	981.074803593072	1094.533754736681	680.889605446475	1038.484404379017	838.063430626749	687.370345879375	
55	27.598000000000	828.985129360544	1020.084673063380	419.821462982139	1018.390292910634	1440.838716766749	235.998600156770	1120.864828651547	1367.458664565430	394.783010385835	1041.253087564414	1442.265466747107	569.693271927664	1015.194107835726	1501.856537456383	387.918579328334	1054.938355728006	951.955313585492	535.966570972299	1039.711336606683	962.604652119646	262.808086189642	1139.771241650888	786.897018552203	499.602594212868	1110.321421778419	667.834940420711	574.880534253191	1194.636831059742	630.131344021846	488.359512754480	1218.930810391549	515.932140421131	510.260828763950	1085.783860282859	751.814642908460	297.526042205564	991.257234947823	638.901225383581	240.705027129108	1071.039782124100	559.846506486015	307.402830324214	1068.914268186475	490.267156033991	319.203279389436	1041.309840505656	418.702554908214	311.455009317895	949.363838881973	304.898856661061	265.430712003277	1000.286696656300	194.416367344489	337.333092645703	1140.444448082831	441.968794076049	524.689265670328	1019.317103849275	407.724915913061	589.155622221523	1001.605415398414	297.118248442720	546.246353955386	801.725993263960	249.458320270864	524.184462365076	961.328825966317	169.066630881914	562.011208420010	853.490622695989	183.889674425234	598.027740902695	1010.516699336603	48.964227318073	591.762929336893	869.722248963917	39.662627969597	385.189494138301	940.902703369346	35.972691310161	302.252089913027	1025.697361645620	96.680829039825	325.958634702880	1153.055167061139	40.513833013081	292.916067159594	1034.614554163485	1089.503863749091	108.375206096749	1227.041725587760	913.613412594529	127.667773789909	971.530767166585	1096.799605800462	681.021562669557	1015.127832517061	837.641790487392	689.622162890709	
56	27.610000000000	827.595801409581	1021.023977304116	418.588508646719	1020.343500220637	1441.451642371902	235.861815187272	1121.010284704904	1367.416146335922	395.461878628579	1040.314567058355	1442.512812475362	569.730120206835	1016.157911009222	1502.312662912616	387.783751937514	1052.835212860995	952.987601895116	536.094876149987	1038.978271649015	962.969225165682	262.897653388505	1140.267942469601	791.579543392067	499.345404478927	1113.498976568703	671.800905852508	574.762342487856	1198.734026235869	635.969550680908	488.454786513965	1225.632830163163	522.772528713706	510.287443029156	1082.668313075133	751.111975431787	298.207030295222	987.324323261407	639.175707006951	240.487156056520	1065.586094721729	559.322440402054	307.808146208697	1062.617456860228	489.835437179382	319.483578397593	1035.037485729946	418.575053704825	311.513502494924	942.894221582647	305.017383607662	265.255099337503	993.317208070159	194.408447046910	337.300111844226	1150.150969045548	446.292703099896	524.568209694549	1030.733236169270	406.644497090754	588.813602451890	1017.981961132423	295.318273023186	545.782639377069	820.172439402102	238.022703478366	523.573371906100	983.622151157500	165.990608327397	561.175722131859	875.375359046688	175.460683758292	597.598299815429	1039.132989047409	49.027545550750	591.342487426273	862.428232283301	39.704563982573	385.112279940417	933.642927073710	35.968811248013	302.189045595238	1018.455778770605	96.692095750619	325.863709261015	1145.800364549723	40.482794276086	292.866369105937	1039.966184969895	1091.208531588576	106.952834627659	1239.700186869058	924.090083333360	127.286988406063	961.866376456326	1099.425285198989	681.286187504874	992.736769110336	838.560007691029	691.674247305679	
57	27.622000000000	826.226043425029	1021.920034838544	417.438820196306	1022.377097443278	1442.000200187780	235.828867205801	1121.213169855550	1367.301376572611	396.230293132195	1039.429514582697	1442.725369332384	569.813541749255	1017.141818390997	1502.698636419559	387.744054957478	1050.767925354850	953.961428572336	536.318042926936	1038.351616438560	963.350498507653	263.059376465693	1140.386255581134	795.836925818375	499.455981048009	1115.683741312537	675.308779829719	574.893965446161	1201.875896484383	641.140139240474	489.013704536488	1231.018871290207	529.222671015347	510.723995583018	1079.568062699601	750.389731394984	299.018629264019	983.447653344480	639.412502357029	240.339264652209	1060.172768100384	558.784675651304	308.286937730010	1056.383039253327	489.400635383859	319.811666966209	1028.821547768077	418.420898671553	311.633276100145	936.474549516899	305.124179799883	265.119851546132	986.346230595700	194.376418256766	337.314746296768	1159.062145583264	450.198834843457	524.746824706045	1042.095030395263	404.490969773349	589.020082087788	1034.864158721147	292.699151607515	545.669658251171	840.014056527064	224.859349578176	523.690366126390	1007.246136141039	162.155995854632	560.608207801003	898.931528721414	165.663920346326	597.662033512737	1069.543046937693	48.849300642631	590.789159191027	855.150276185526	39.738885203591	385.036322012832	926.385492442859	35.958848892004	302.137344227979	1011.217230705930	96.700915145076	325.789063291492	1138.549782234464	40.457865775268	292.823136338459	1044.996780750671	1092.845466511880	105.797129023517	1251.527438358208	934.702232479882	127.107175345074	952.153889470935	1102.368949695112	681.666044859975	971.428313846090	840.585342877478	693.512079987921	
58	27.634000000000	824.887662924300	1022.738805495316	416.379645406061	1024.444417641736	1442.448742050206	235.895988945500	1121.463023124591	1367.088505775166	397.067793462481	1038.608256832660	1442.867004513446	569.934713877316	1018.137785609705	1502.985390067272	387.792807666428	1048.762699797203	954.844528960033	536.638036655017	1037.814977352888	963.687958395621	263.289431745245	1140.125460970095	799.525328046756	499.892857442048	1116.828923815560	678.220961806394	575.244896432111	1203.958953196607	645.451053056323	489.958543369537	1234.989863900599	535.095231956688	511.473907915677	1076.530772630217	749.630783557927	299.924010708509	979.667306494340	639.585906820311	240.264147416798	1054.864667940855	558.214376814373	308.826341834546	1050.279840887455	488.944360447587	320.191708930533	1022.716786358028	418.214544909535	311.823293458992	930.146025036996	305.205383069531	265.034763623510	979.394004574214	194.300960032944	337.391651011006	1167.050447517418	453.608953147387	525.175564685746	1053.401465512200	401.324064563682	589.790689579577	1052.154592943959	289.424194929861	545.908714628199	861.316696449611	210.305375876065	524.576985425842	1032.060740375746	157.875182735971	560.362172509663	924.138391429491	154.885822209558	598.257816070420	1101.448775945077	48.804598535978	590.163099297237	847.890321088898	39.762820594874	384.961560913914	919.131226375895	35.942870265624	302.097663764842	1003.981693306777	96.703351885015	325.743155421795	1131.303172985253	40.439308438981	292.787614571871	1049.729920180202	1094.363275789502	104.893330125132	1262.530721717380	945.339747298966	127.118919169421	942.487906787213	1105.581017979662	682.138718249081	951.277415331323	843.484913300121	695.128061938867	
